<?xml version="1.0" encoding="UTF-8"?><svg id="Layer_1" xmlns="http://www.w3.org/2000/svg" viewBox="0 0 225.99 54.87"><defs><style>.cls-1{fill:#d61726;}.cls-2{fill:#1d1d1b;}</style></defs><path class="cls-1" d="m45.53,53.58l.62-1.86c1.27.81,2.72,1.22,4.34,1.22,1.16,0,2.07-.26,2.75-.78.67-.52,1.01-1.21,1.01-2.07,0-.79-.26-1.44-.78-1.92-.52-.49-1.42-.93-2.69-1.33-1.66-.52-2.88-1.15-3.67-1.9-.79-.75-1.19-1.72-1.19-2.89,0-1.34.54-2.44,1.6-3.3,1.07-.86,2.46-1.29,4.16-1.29,1.71,0,3.09.3,4.15.9l-.65,1.79c-1.02-.58-2.21-.87-3.55-.87-1.16,0-2.02.26-2.58.77-.56.51-.85,1.1-.85,1.76,0,.75.27,1.35.83,1.83.55.47,1.48.92,2.79,1.33,1.62.53,2.81,1.17,3.58,1.93.76.75,1.14,1.77,1.14,3.04,0,1.36-.53,2.51-1.58,3.45-1.05.94-2.61,1.41-4.68,1.41-.86,0-1.74-.11-2.63-.34-.89-.23-1.6-.51-2.11-.86"/><polygon class="cls-1" points="76.7 44.84 76.7 46.68 69.45 46.67 69.44 52.66 77.54 52.67 77.54 54.5 67.18 54.49 67.2 37.76 77.13 37.77 77.13 39.6 69.45 39.6 69.45 44.84 76.7 44.84"/><path class="cls-1" d="m90.24,39.57v6.01s2.65,0,2.65,0c1.24,0,2.22-.28,2.94-.85.72-.57,1.08-1.33,1.08-2.27,0-1.08-.37-1.86-1.13-2.36-.75-.5-1.77-.75-3.04-.75-1.08,0-1.91.07-2.51.22m-2.27,14.95l.02-16.51c1.32-.25,2.86-.37,4.62-.37,2.38,0,4.12.48,5.21,1.42.91.79,1.36,1.85,1.36,3.16,0,1.06-.32,1.96-.95,2.71-.63.74-1.43,1.26-2.39,1.56v.05c1.22.45,2.07,1.54,2.53,3.28.73,2.78,1.19,4.35,1.39,4.72h-2.33c-.26-.45-.65-1.77-1.16-3.98-.28-1.16-.68-1.99-1.21-2.48-.53-.5-1.31-.76-2.36-.8h-2.46s0,7.25,0,7.25h-2.26Z"/><path class="cls-1" d="m116.92,54.54h-2.51s-6.02-16.75-6.02-16.75h2.46s2.9,8.4,2.9,8.4c.92,2.63,1.58,4.7,1.98,6.19h.05c.42-1.39,1.15-3.44,2.19-6.13l3.24-8.44h2.41s-6.7,16.73-6.7,16.73Z"/><rect class="cls-1" x="132.82" y="37.82" width="2.26" height="16.74"/><path class="cls-1" d="m159.23,52.2l.47,1.76c-1.26.61-2.96.92-5.09.91-2.67,0-4.86-.76-6.57-2.29-1.71-1.52-2.57-3.61-2.56-6.26,0-2.48.88-4.57,2.65-6.26,1.76-1.69,4.11-2.53,7.04-2.53,1.94,0,3.47.29,4.59.85l-.57,1.79c-1.12-.53-2.43-.8-3.92-.8-2.3,0-4.11.63-5.43,1.88-1.32,1.26-1.98,2.94-1.98,5.04,0,1.95.63,3.56,1.89,4.81,1.27,1.25,3.04,1.88,5.33,1.88,1.65,0,3.04-.26,4.15-.79"/><polygon class="cls-1" points="179.6 44.94 179.6 46.78 172.35 46.77 172.35 52.75 180.44 52.76 180.44 54.6 170.08 54.59 170.1 37.85 180.03 37.86 180.03 39.7 172.36 39.69 172.35 44.93 179.6 44.94"/><path class="cls-2" d="m157.95,17.5c0,4.07-1.79,6.73-5.36,7.96-1.25.44-2.59.65-4.02.65-3.01,0-5.8-.91-8.37-2.73l2.68-5.04c1.88,1.7,3.73,2.56,5.53,2.56.81,0,1.5-.19,2.07-.57.66-.43.99-1.03.99-1.82,0-.71-.36-1.3-1.1-1.78-.54-.36-1.45-.72-2.74-1.09-1.55-.46-2.53-.78-2.93-.95-.63-.27-1.18-.59-1.62-.95-1.28-1.06-1.93-2.65-1.93-4.79s.66-4.08,1.99-5.55c1.55-1.73,3.62-2.59,6.21-2.59s5.14.65,7.63,1.96l-2.5,4.87c-1.37-1.07-2.75-1.6-4.14-1.6-.67,0-1.27.17-1.81.51-.6.39-.9.91-.9,1.56s.39,1.18,1.18,1.65c.35.21,1.41.58,3.18,1.1,2.21.65,3.79,1.56,4.73,2.75.81,1.01,1.22,2.31,1.22,3.9"/><path class="cls-2" d="m190.93,12.84c0-1.7-.54-3.16-1.63-4.4-1.39-1.58-3.13-2.37-5.21-2.37-1.44,0-2.74.41-3.91,1.21-1.17.8-2,1.88-2.49,3.22-.28.77-.42,1.54-.42,2.33,0,1.63.54,3.08,1.62,4.37,1.34,1.59,3.08,2.38,5.2,2.38s3.86-.79,5.21-2.37c1.09-1.26,1.63-2.72,1.63-4.38m6.49,0c0,3.27-1.09,6.14-3.26,8.6-2.48,2.81-5.83,4.22-10.07,4.22s-7.57-1.4-10.05-4.22c-2.17-2.47-3.26-5.34-3.26-8.6,0-1.49.29-3.02.88-4.59.59-1.57,1.37-2.91,2.36-4.03,2.48-2.81,5.83-4.22,10.07-4.22s7.59,1.41,10.07,4.22c2.18,2.47,3.26,5.34,3.26,8.62"/><polygon class="cls-2" points="26.85 22.96 15.16 2.7 14 .7 12.85 2.7 1.15 22.96 0 24.96 2.31 24.96 11.45 24.96 12.21 24.96 12.6 24.29 14.06 21.76 15.21 19.77 12.91 19.77 8.99 19.77 14 11.08 17.22 16.65 21.63 24.29 22.01 24.96 22.78 24.96 25.7 24.96 28 24.96 26.85 22.96"/><polygon class="cls-2" points="38.92 24.94 52.62 24.94 52.62 19.72 45.18 19.72 45.18 15.42 52.22 15.42 52.22 10.2 45.18 10.2 45.18 6.1 52.62 6.1 52.62 .88 38.92 .88 38.92 24.94"/><path class="cls-2" d="m78.75,10.81c-.58.55-1.53.83-2.85.83h-1.17v-5.99h1.17c1.31,0,2.26.28,2.85.83.62.59.94,1.31.94,2.16s-.31,1.58-.94,2.18m5.52,2.57c1.27-1.27,1.9-2.97,1.9-5.1,0-1.86-.55-3.47-1.66-4.85-1.36-1.7-3.47-2.56-6.31-2.56h-9.73v24.07h6.26v-9.24l5.98,9.24h7.78l-7.56-9.87c1.42-.32,2.54-.88,3.35-1.69"/><path class="cls-2" d="m119.4,17.37c-1.36,1.58-3.1,2.37-5.21,2.37s-3.85-.79-5.2-2.39c-1.08-1.29-1.63-2.74-1.63-4.37,0-.79.14-1.57.42-2.34.5-1.34,1.32-2.42,2.49-3.22,1.17-.81,2.47-1.21,3.91-1.21,2.09,0,3.82.79,5.21,2.37,1.08,1.24,1.63,2.71,1.63,4.4s-.54,3.12-1.63,4.38M114.18.15c-4.23,0-7.59,1.41-10.07,4.22-.99,1.12-1.77,2.46-2.36,4.03-.59,1.57-.88,3.1-.88,4.59,0,3.27,1.09,6.13,3.26,8.6,2.48,2.81,5.83,4.21,10.05,4.21s7.59-1.4,10.07-4.21c2.18-2.47,3.26-5.34,3.26-8.6s-1.09-6.15-3.26-8.62c-2.48-2.81-5.84-4.22-10.07-4.22"/><polygon class="cls-2" points="225.99 19.77 225.99 19.72 216.43 19.72 216.43 .88 210.17 .88 210.17 24.94 222.89 24.94 225.89 19.77 225.99 19.77"/></svg>