<svg xmlns="http://www.w3.org/2000/svg" xmlns:xlink="http://www.w3.org/1999/xlink" width="131.037" height="80.043" viewBox="0 0 131.037 80.043">
  <defs>
    <clipPath id="clip-path">
      <rect id="Rectangle_55" data-name="Rectangle 55" width="131.037" height="80.043" transform="translate(0 0)" fill="none"/>
    </clipPath>
  </defs>
  <g id="Group_6" data-name="Group 6" transform="translate(724.874 -410.476)">
    <g id="Group_5" data-name="Group 5" transform="translate(-724.874 410.476)" clip-path="url(#clip-path)">
      <path id="Path_29" data-name="Path 29" d="M131.034,59.027c.059-5.906-1.624-10.542-5.048-13.875s-8.843-6.249-16.267-8.744q-9.3-3.026-13.25-6.951a13.29,13.29,0,0,1-3.9-10.032,13.815,13.815,0,0,1,4.476-9.872q4.416-4.392,13.756-4.325,9.329.082,15.094,4.126L128.111,4.7Q122.22.789,111.073.7,100.6.6,93.895,6.1a17.62,17.62,0,0,0-6.8,14.053A17.02,17.02,0,0,0,92.006,32.72q4.965,5.068,16.423,8.8,9.528,3.174,13.358,7.285a14.93,14.93,0,0,1,3.783,10.746,14.386,14.386,0,0,1-5.451,11.565c-3.232,2.633-7.523,3.975-12.8,4.209H89.672L88.581,73.43,50,6.585,46.193,0l-3.8,6.585L3.8,73.43,0,80.025H40.3l1.272-2.2L46.382,69.5,50.191,62.9H29.646L46.193,34.241,56.817,52.634,71.351,77.826l1.269,2.2h2.534l9.108.018h20.019c.162,0,.961,0,1.212,0l2.946-.167c.81-.08,1.569-.174,1.949-.217.263-.032.528-.069.789-.1,5.46-.748,9.893-2.548,13.127-5.563a19.933,19.933,0,0,0,6.729-14.966" transform="translate(0 0)" fill="#c9001b"/>
    </g>
  </g>
</svg>
