<?xml version="1.0" encoding="UTF-8"?><svg id="Warstwa_1" xmlns="http://www.w3.org/2000/svg" viewBox="0 0 79.96 79.96"><defs><style>.cls-1{fill:#fff;}.cls-2{fill:#d61b26;}</style></defs><circle class="cls-1" cx="39.98" cy="39.98" r="39.98"/><path class="cls-2" d="m45.09,42.98c-.52,0-.95-.42-.95-.95v-8.11c0-.52.42-.95.95-.95s.95.42.95.95v8.11c0,.52-.42.95-.95.95Z"/><path class="cls-2" d="m39.98,24.96c-2.62,0-4.74-2.13-4.74-4.74s2.13-4.74,4.74-4.74,4.74,2.13,4.74,4.74-2.13,4.74-4.74,4.74Zm0-7.6c-1.57,0-2.85,1.28-2.85,2.85s1.28,2.85,2.85,2.85,2.85-1.28,2.85-2.85-1.28-2.85-2.85-2.85Z"/><path class="cls-2" d="m34.87,42.98c-.52,0-.95-.42-.95-.95v-8.11c0-.52.42-.95.95-.95s.95.42.95.95v8.11c0,.52-.42.95-.95.95Z"/><path class="cls-2" d="m45.09,64.49h-3.84c-.52,0-.95-.42-.95-.95v-15.76c0-.13-.07-.21-.11-.25-.05-.04-.14-.09-.27-.07-.14.02-.26.2-.26.38v15.7c0,.52-.42.95-.95.95h-3.84c-.52,0-.95-.42-.95-.95v-21.51c0-.52.42-.95.95-.95s.95.42.95.95v20.56h1.95v-14.75c0-1.11.79-2.08,1.85-2.25.65-.11,1.3.08,1.8.5.5.42.78,1.03.78,1.68v14.82h1.95v-20.56c0-.52.42-.95.95-.95s.95.42.95.95v21.51c0,.52-.42.95-.95.95Z"/><path class="cls-2" d="m34.87,44.82h-3.57c-.52,0-.95-.42-.95-.95v-11.69c0-3.15,2.36-5.8,5.49-6.16.52-.06.99.31,1.05.83.06.52-.31.99-.83,1.05-2.18.25-3.82,2.09-3.82,4.28v10.75h1.68v-5.98c0-.52.42-.95.95-.95s.95.42.95.95v6.93c0,.52-.42.95-.95.95Z"/><path class="cls-2" d="m48.67,44.82h-3.57c-.52,0-.95-.42-.95-.95s.42-.95.95-.95h2.63v-10.75c0-2.19-1.64-4.03-3.82-4.28-.52-.06-.89-.53-.83-1.05.06-.52.52-.89,1.05-.83,3.13.36,5.49,3.01,5.49,6.16v11.69c0,.52-.42.95-.95.95Z"/><path class="cls-2" d="m61.59,29.8c-1.74,0-3.15-1.35-3.15-3,0-.52.42-.95.95-.95s.95.42.95.95c0,.61.56,1.11,1.26,1.11s1.26-.5,1.26-1.11-.56-1.11-1.26-1.11c-1.74,0-3.15-1.35-3.15-3s1.41-3,3.15-3,3.15,1.35,3.15,3c0,.52-.42.95-.95.95s-.95-.42-.95-.95c0-.61-.56-1.11-1.26-1.11s-1.26.5-1.26,1.11.56,1.11,1.26,1.11c1.74,0,3.15,1.35,3.15,3s-1.41,3-3.15,3Z"/><path class="cls-2" d="m61.59,32.73c-4.4,0-7.98-3.58-7.98-7.98s3.58-7.98,7.98-7.98,7.98,3.58,7.98,7.98-3.58,7.98-7.98,7.98Zm0-14.07c-3.36,0-6.09,2.73-6.09,6.09s2.73,6.09,6.09,6.09,6.09-2.73,6.09-6.09-2.73-6.09-6.09-6.09Z"/><path class="cls-2" d="m61.59,58.91c-1.74,0-3.15-1.35-3.15-3,0-.52.42-.95.95-.95s.95.42.95.95c0,.61.56,1.11,1.26,1.11s1.26-.5,1.26-1.11-.56-1.11-1.26-1.11c-1.74,0-3.15-1.35-3.15-3s1.41-3,3.15-3,3.15,1.35,3.15,3c0,.52-.42.95-.95.95s-.95-.42-.95-.95c0-.61-.56-1.11-1.26-1.11s-1.26.5-1.26,1.11.56,1.11,1.26,1.11c1.74,0,3.15,1.35,3.15,3s-1.41,3-3.15,3Z"/><path class="cls-2" d="m61.59,61.83c-4.4,0-7.98-3.58-7.98-7.98s3.58-7.98,7.98-7.98,7.98,3.58,7.98,7.98-3.58,7.98-7.98,7.98Zm0-14.07c-3.36,0-6.09,2.73-6.09,6.09s2.73,6.09,6.09,6.09,6.09-2.73,6.09-6.09-2.73-6.09-6.09-6.09Z"/><path class="cls-2" d="m54.55,54.8c-.15,0-.3-.03-.43-.11l-6.43-3.33c-.46-.24-.64-.81-.4-1.27.24-.46.81-.64,1.27-.4l6.43,3.33c.46.24.64.81.4,1.27-.17.32-.5.51-.84.51Z"/><path class="cls-2" d="m50.28,27.91c-.34,0-.67-.19-.84-.51-.24-.46-.06-1.03.4-1.27l4.27-2.21c.46-.24,1.03-.06,1.27.4.24.46.06,1.03-.4,1.27l-4.27,2.21c-.14.07-.29.11-.43.11Z"/><path class="cls-2" d="m18.38,29.8c-1.74,0-3.15-1.35-3.15-3,0-.52.42-.95.95-.95s.95.42.95.95c0,.61.56,1.11,1.26,1.11s1.26-.5,1.26-1.11-.56-1.11-1.26-1.11c-1.74,0-3.15-1.35-3.15-3s1.41-3,3.15-3,3.15,1.35,3.15,3c0,.52-.42.95-.95.95s-.95-.42-.95-.95c0-.61-.56-1.11-1.26-1.11s-1.26.5-1.26,1.11.56,1.11,1.26,1.11c1.74,0,3.15,1.35,3.15,3s-1.41,3-3.15,3Z"/><path class="cls-2" d="m18.38,32.73c-4.4,0-7.98-3.58-7.98-7.98s3.58-7.98,7.98-7.98,7.98,3.58,7.98,7.98-3.58,7.98-7.98,7.98Zm0-14.07c-3.36,0-6.09,2.73-6.09,6.09s2.73,6.09,6.09,6.09,6.09-2.73,6.09-6.09-2.73-6.09-6.09-6.09Z"/><path class="cls-2" d="m18.38,58.91c-1.74,0-3.15-1.35-3.15-3,0-.52.42-.95.95-.95s.95.42.95.95c0,.61.56,1.11,1.26,1.11s1.26-.5,1.26-1.11-.56-1.11-1.26-1.11c-1.74,0-3.15-1.35-3.15-3s1.41-3,3.15-3,3.15,1.35,3.15,3c0,.52-.42.95-.95.95s-.95-.42-.95-.95c0-.61-.56-1.11-1.26-1.11s-1.26.5-1.26,1.11.56,1.11,1.26,1.11c1.74,0,3.15,1.35,3.15,3s-1.41,3-3.15,3Z"/><path class="cls-2" d="m18.38,61.83c-4.4,0-7.98-3.58-7.98-7.98s3.58-7.98,7.98-7.98,7.98,3.58,7.98,7.98-3.58,7.98-7.98,7.98Zm0-14.07c-3.36,0-6.09,2.73-6.09,6.09s2.73,6.09,6.09,6.09,6.09-2.73,6.09-6.09-2.73-6.09-6.09-6.09Z"/><path class="cls-2" d="m25.41,54.8c-.34,0-.67-.19-.84-.51-.24-.46-.06-1.03.4-1.27l6.43-3.33c.46-.24,1.03-.06,1.27.4.24.46.06,1.03-.4,1.27l-6.43,3.33c-.14.07-.29.11-.43.11Z"/><path class="cls-2" d="m29.68,27.91c-.15,0-.3-.03-.43-.11l-4.27-2.21c-.46-.24-.64-.81-.4-1.27.24-.46.81-.64,1.27-.4l4.27,2.21c.46.24.64.81.4,1.27-.17.32-.5.51-.84.51Z"/></svg>