<?xml version="1.0" encoding="UTF-8"?><svg id="Warstwa_1" xmlns="http://www.w3.org/2000/svg" viewBox="0 0 79.96 79.96"><defs><style>.cls-1{fill:#fff;}.cls-2{fill:#d61b26;}</style></defs><circle class="cls-1" cx="39.98" cy="39.98" r="39.98"/><path class="cls-2" d="m31.58,22.82c-2.83,0-5.13-2.3-5.13-5.13s2.3-5.13,5.13-5.13,5.13,2.3,5.13,5.13-2.3,5.13-5.13,5.13Zm0-8.57c-1.9,0-3.44,1.54-3.44,3.44s1.54,3.44,3.44,3.44,3.44-1.54,3.44-3.44-1.54-3.44-3.44-3.44Z"/><path class="cls-2" d="m25.81,43.15c-.47,0-.84-.38-.84-.84v-11.76c0-.47.38-.84.84-.84s.84.38.84.84v11.76c0,.47-.38.84-.84.84Z"/><path class="cls-2" d="m37.34,67.4h-4.34c-.47,0-.84-.38-.84-.84v-17.78c0-.17-.08-.33-.21-.45-.08-.07-.24-.17-.48-.13-.27.04-.48.33-.48.65v17.7c0,.47-.38.84-.84.84h-4.34c-.47,0-.84-.38-.84-.84v-21.65c-.58.26-1.25.32-1.9.16-1.26-.32-2.13-1.48-2.13-2.84v-13.61c0-2.38,1.93-4.31,4.31-4.31h1.62c.47,0,.84.38.84.84s-.38.84-.84.84h-1.62c-1.44,0-2.62,1.18-2.62,2.62v13.61c0,.57.36,1.08.86,1.21.37.09.74.02,1.03-.21.29-.22.45-.56.45-.92,0-.47.38-.84.84-.84s.84.38.84.84v23.41h2.65v-16.86c0-1.15.81-2.14,1.9-2.32.67-.11,1.34.08,1.85.51.51.43.8,1.06.8,1.73v16.93h2.65V30.54c0-.34.2-.64.51-.78.31-.13.67-.07.91.16l6.52,6.18c.29.27.66.42,1.06.42h6.28c.65,0,1.18-.53,1.18-1.18s-.52-1.18-1.17-1.18l-4.97-.06c-.93-.01-1.82-.43-2.42-1.14l-5.27-6.19c-.46-.48-1.15-.77-1.86-.77h-2.13c-.47,0-.84-.38-.84-.84s.38-.84.84-.84h2.13c1.17,0,2.3.48,3.11,1.33l5.3,6.23c.29.34.71.54,1.16.54l4.97.06c1.56.02,2.84,1.31,2.84,2.87s-1.29,2.87-2.87,2.87h-6.28c-.83,0-1.62-.31-2.22-.89l-5.09-4.83v34.05c0,.47-.38.84-.84.84Z"/><path class="cls-2" d="m54.52,26.92c-1.79,0-3.24-1.38-3.24-3.08,0-.47.38-.84.84-.84s.84.38.84.84c0,.77.7,1.39,1.55,1.39s1.55-.63,1.55-1.39-.7-1.39-1.55-1.39c-1.79,0-3.24-1.38-3.24-3.08s1.45-3.08,3.24-3.08,3.24,1.38,3.24,3.08c0,.47-.38.84-.84.84s-.84-.38-.84-.84c0-.77-.7-1.39-1.55-1.39s-1.55.63-1.55,1.39.7,1.39,1.55,1.39c1.79,0,3.24,1.38,3.24,3.08s-1.45,3.08-3.24,3.08Z"/><path class="cls-2" d="m54.52,30.11c-4.69,0-8.51-3.82-8.51-8.51s3.82-8.51,8.51-8.51,8.51,3.82,8.51,8.51-3.82,8.51-8.51,8.51Zm0-15.33c-3.76,0-6.82,3.06-6.82,6.82s3.06,6.82,6.82,6.82,6.82-3.06,6.82-6.82-3.06-6.82-6.82-6.82Z"/><path class="cls-2" d="m50.9,67.4h-29.12c-.47,0-.84-.38-.84-.84s.38-.84.84-.84h29.12c.47,0,.84.38.84.84s-.38.84-.84.84Z"/></svg>