<svg xmlns="http://www.w3.org/2000/svg" width="45" height="45" viewBox="0 0 45 45">
  <defs>
    <style>
      .cls-1 {
        fill: #707070;
      }
    </style>
  </defs>
  <path id="Icon_awesome-linkedin" data-name="Icon awesome-linkedin" class="cls-1" d="M41.786,2.25H3.2A3.228,3.228,0,0,0,0,5.494V44.006A3.228,3.228,0,0,0,3.2,47.25H41.786A3.237,3.237,0,0,0,45,44.006V5.494A3.237,3.237,0,0,0,41.786,2.25ZM13.6,40.821H6.931V19.346h6.68V40.821ZM10.266,16.413a3.867,3.867,0,1,1,3.867-3.867A3.869,3.869,0,0,1,10.266,16.413ZM38.6,40.821h-6.67V30.375c0-2.491-.05-5.7-3.465-5.7-3.475,0-4.008,2.712-4.008,5.515V40.821h-6.67V19.346h6.4v2.933h.09A7.025,7.025,0,0,1,30.6,18.814c6.75,0,8.006,4.45,8.006,10.235Z" transform="translate(0 -2.25)"/>
</svg>
