<svg xmlns="http://www.w3.org/2000/svg" width="45" height="45" viewBox="0 0 45 45">
  <defs>
    <style>
      .cls-1 {
        fill: #707070;
      }
    </style>
  </defs>
  <path id="Icon_awesome-facebook-square" data-name="Icon awesome-facebook-square" class="cls-1" d="M40.179,2.25H4.821A4.821,4.821,0,0,0,0,7.071V42.429A4.821,4.821,0,0,0,4.821,47.25H18.608v-15.3H12.28v-7.2h6.328V19.262c0-6.243,3.717-9.691,9.409-9.691a38.337,38.337,0,0,1,5.577.486v6.127H30.452c-3.095,0-4.06,1.921-4.06,3.89V24.75H33.3l-1.1,7.2h-5.8v15.3H40.179A4.821,4.821,0,0,0,45,42.429V7.071A4.821,4.821,0,0,0,40.179,2.25Z" transform="translate(0 -2.25)"/>
</svg>
