<?xml version="1.0" encoding="UTF-8"?><svg id="Warstwa_1" xmlns="http://www.w3.org/2000/svg" viewBox="0 0 79.96 79.96"><defs><style>.cls-1{fill:#fff;}.cls-2{fill:#d61b26;}</style></defs><circle class="cls-1" cx="39.98" cy="39.98" r="39.98"/><path class="cls-2" d="m20.8,60.26c-.45,0-.89,0-1.3-.02-1.41-.04-2.69-.8-3.4-2.02-.71-1.21-.76-2.67-.12-3.92.93-1.81,2.57-3.57,4.74-5.08,3.05-2.12,3.11-12.07,2.88-15.72-.03-.42.29-.77.71-.8.41-.02.78.29.8.71.09,1.43.77,14.06-3.52,17.05-1.97,1.38-3.45,2.94-4.26,4.53-.41.79-.38,1.69.07,2.46.45.77,1.26,1.25,2.15,1.27,5.46.18,15.08-.63,18.16-7.95,3.11-7.39,7.1-13.9,9.2-17.13,1.04-1.59.94-3.68-.25-5.19-1.98-2.53-5.46-5.7-10.82-6.45-.41-.06-.7-.44-.64-.85.06-.41.44-.7.85-.64,5.86.83,9.65,4.27,11.8,7.01,1.58,2.02,1.72,4.81.32,6.95-2.07,3.18-6.01,9.61-9.07,16.89-3.19,7.58-12.33,8.89-18.3,8.89Z"/><path class="cls-2" d="m18.39,56.75c-.45,0-.89,0-1.3-.02-.33-.01-.66-.06-.99-.16-.35-.1-.58-.44-.55-.8.05-.51.19-1.01.43-1.47.93-1.81,2.57-3.57,4.74-5.08,3.05-2.12,3.11-12.07,2.88-15.72-.02-.39.25-.73.63-.79,10.79-1.79,10.95-11.06,10.95-11.45,0-.22.1-.43.26-.57.17-.14.38-.21.6-.18,3.91.55,7.35,2.32,10.24,5.24.09.09.15.2.19.32.48,1.67.22,3.45-.71,4.88-2.07,3.18-6.01,9.61-9.07,16.89-3.19,7.58-12.33,8.89-18.3,8.89Zm-1.17-1.53c5.48.16,15.01-.67,18.08-7.95,3.11-7.39,7.1-13.91,9.2-17.13.66-1.01.87-2.26.57-3.46-2.42-2.41-5.26-3.93-8.44-4.54-.31,2.58-2.03,10.05-11.48,11.94.14,3.02.33,13.67-3.56,16.38-1.97,1.38-3.45,2.94-4.26,4.53-.04.07-.07.15-.1.22Z"/><path class="cls-2" d="m24.36,34.21c-.3,0-.59-.18-.7-.48l-1.01-2.57c-.17-.43-.15-.91.06-1.32.21-.41.58-.71,1.02-.83,2.29-.61,7.64-2.59,7.87-7.78.02-.5.27-.95.68-1.24.41-.29.92-.37,1.4-.22l2.49.76c.4.12.62.54.5.94-.12.4-.54.62-.94.5l-2.49-.76s-.07,0-.09.01c-.04.03-.04.06-.04.07-.27,6.2-6.38,8.48-8.99,9.18-.03,0-.05.02-.06.05-.01.03-.01.05,0,.08l1.01,2.57c.15.39-.04.83-.42.98-.09.04-.18.05-.28.05Z"/><path class="cls-2" d="m24.02,45.34c-.22,0-.35-.01-.37-.02-.41-.05-.71-.43-.65-.84.05-.41.42-.71.84-.65.04,0,2.4.21,5.88-2.22.34-.24.81-.15,1.05.19.24.34.16.81-.19,1.05-3.23,2.25-5.66,2.5-6.56,2.5Z"/><path class="cls-2" d="m24.34,40.46c-.42,0-.75-.34-.75-.75,0-.42.34-.75.75-.76.03,0,2.98-.04,5.33-1.93.33-.26.8-.21,1.06.11.26.32.21.8-.11,1.06-2.78,2.24-6.13,2.27-6.28,2.27h0Z"/><path class="cls-2" d="m52.98,60.24H19.53c-.42,0-.76-.34-.76-.75s.34-.76.76-.76h33.46c.42,0,.75.34.75.76s-.34.75-.75.75Z"/><path class="cls-2" d="m57.75,44.16h-10.77c-.42,0-.76-.34-.76-.75s.34-.76.76-.76h10.77c.42,0,.75.34.75.76s-.34.75-.75.75Z"/><path class="cls-2" d="m61.08,39.88h-10.77c-.42,0-.75-.34-.75-.75s.34-.75.75-.75h10.77c.42,0,.75.34.75.75s-.34.75-.75.75Z"/><path class="cls-2" d="m63.24,35.59h-10.77c-.42,0-.75-.34-.75-.75s.34-.76.75-.76h10.77c.42,0,.76.34.76.76s-.34.75-.76.75Z"/><path class="cls-2" d="m63.68,31.3h-10.77c-.42,0-.75-.34-.75-.75s.34-.75.75-.75h10.77c.42,0,.76.34.76.75s-.34.75-.76.75Z"/><path class="cls-2" d="m61.8,27.01h-10.77c-.42,0-.75-.34-.75-.75s.34-.75.75-.75h10.77c.42,0,.76.34.76.75s-.34.75-.76.75Z"/></svg>