<?xml version="1.0" encoding="UTF-8"?><svg id="Warstwa_1" xmlns="http://www.w3.org/2000/svg" viewBox="0 0 79.96 79.96"><defs><style>.cls-1{fill:#fff;}.cls-2{fill:#d61b26;}</style></defs><circle class="cls-1" cx="39.98" cy="39.98" r="39.98"/><path class="cls-2" d="m39.98,65.53c-6.55,0-13.09-2.49-18.08-7.48-9.97-9.97-9.97-26.18,0-36.15,9.97-9.97,26.18-9.97,36.15,0,9.97,9.97,9.97,26.18,0,36.15-4.98,4.98-11.53,7.48-18.07,7.48Zm0-49.42c-6.12,0-12.23,2.33-16.89,6.98-9.31,9.31-9.31,24.46,0,33.77,9.31,9.31,24.46,9.31,33.77,0,9.31-9.31,9.31-24.46,0-33.77-4.66-4.66-10.77-6.98-16.89-6.98Z"/><path class="cls-2" d="m40,60.52c-5.49,0-10.65-2.14-14.54-6.02-3.88-3.88-6.02-9.04-6.02-14.54s2.14-10.65,6.02-14.54c7.6-7.6,19.91-8.04,28.01-.99.35.3.39.83.08,1.18-.3.35-.83.39-1.18.08-7.44-6.47-18.74-6.08-25.72.91-3.57,3.57-5.53,8.31-5.53,13.35s1.96,9.78,5.53,13.35,8.31,5.53,13.35,5.53,9.78-1.96,13.35-5.53c6.56-6.56,7.35-17.13,1.83-24.57-.28-.37-.2-.9.17-1.18.37-.28.9-.2,1.18.17,6.01,8.11,5.15,19.61-2,26.76-3.88,3.88-9.04,6.02-14.54,6.02Z"/><path class="cls-2" d="m42.3,53.97h-4.64c-1.57,0-2.86-1.28-2.86-2.86v-5.96h-5.96c-1.57,0-2.86-1.28-2.86-2.86v-4.64c0-1.57,1.28-2.86,2.86-2.86h5.96v-5.96c0-1.57,1.28-2.86,2.86-2.86h4.64c1.57,0,2.86,1.28,2.86,2.86v5.96h5.96c1.57,0,2.86,1.28,2.86,2.86v4.64c0,1.57-1.28,2.86-2.86,2.86h-5.96v5.96c0,1.57-1.28,2.86-2.86,2.86Zm-13.45-17.48c-.65,0-1.18.53-1.18,1.18v4.64c0,.65.53,1.18,1.18,1.18h6.8c.46,0,.84.38.84.84v6.8c0,.65.53,1.18,1.18,1.18h4.64c.65,0,1.18-.53,1.18-1.18v-6.8c0-.46.38-.84.84-.84h6.8c.65,0,1.18-.53,1.18-1.18v-4.64c0-.65-.53-1.18-1.18-1.18h-6.8c-.46,0-.84-.38-.84-.84v-6.8c0-.65-.53-1.18-1.18-1.18h-4.64c-.65,0-1.18.53-1.18,1.18v6.8c0,.46-.38.84-.84.84h-6.8Z"/></svg>